<svg id="" xmlns="http://www.w3.org/2000/svg" viewBox="0 0 249.14 147.2">
    <path fill="#f50" d="M10.85,146.74a17.18,17.18,0,0,0,4.55-4.38c4.87-6.11,7.24-12.42,8.31-22.15a135.11,135.11,0,0,0,.2-15.53c-.17-4.85-.17-5,.09-5.32s3.05-2.39,6.44-5,7.12-5.38,8.28-6.32a62.86,62.86,0,0,0,10-9.55A29.38,29.38,0,0,0,54,66.24a41.64,41.64,0,0,0,.06-10.52,30.25,30.25,0,0,0-5.59-12.18,27.55,27.55,0,0,0-17-10.06,42.19,42.19,0,0,0-8.82-.3,3.59,3.59,0,0,1-1.3,0c-.19-.18-.71-13.71-.62-16.14a17.23,17.23,0,0,1,2.1-8.22A14,14,0,0,1,27,4.77a12.4,12.4,0,0,1,11-.64A10.63,10.63,0,0,1,39.79,5.3a6.62,6.62,0,0,1,1.58,2.19c0,.1-.44.13-1.36.07A7.58,7.58,0,0,0,33.77,10a7.69,7.69,0,0,0-2.33,6.2,7.85,7.85,0,0,0,8.17,7.36A8.2,8.2,0,0,0,46,20.84c3.12-3.36,3.41-8.95.7-13.29a15.23,15.23,0,0,0-8.11-6.41,13.76,13.76,0,0,0-5.1-.81A15.47,15.47,0,0,0,22.2,4.77C20,7.08,18.66,9.87,17.93,14c-.31,1.71-.3,8.16,0,15.26.15,3.2.15,4.52,0,4.64a13.43,13.43,0,0,1-1.9.74A23,23,0,0,0,2.8,44.86a20,20,0,0,0,3,24.29,19.05,19.05,0,0,0,7.69,4.68,25.66,25.66,0,0,0,5.45,1c.39,0,.66.07.71.19.12.31.61,13.51.51,13.69a8.81,8.81,0,0,1-1.26,1.08,65.31,65.31,0,0,0-8.73,8.43c-5.84,7.2-8.7,16.36-8.7,27.74,0,7.9,1.44,13.84,4.44,18.48C7.61,147.18,8.86,147.73,10.85,146.74ZM7.39,134.81a3.13,3.13,0,0,1-1.28-1.54c-.91-1.79-1.18-3.47-1.18-7A18.29,18.29,0,0,1,6,119.08c2-5.71,6.8-11.68,13.48-16.67,1.13-.84,1.17-.84,1.19,0,0,.39.06,1.93.12,3.43.49,11.55-1.88,21.92-6.15,26.75a9.92,9.92,0,0,1-3.44,2.4A4.62,4.62,0,0,1,7.39,134.81Zm15.88-49.7c-.24-2.92-.49-10.32-.36-10.48a1.41,1.41,0,0,1,.68-.28,22.14,22.14,0,0,0,4.78-1.73c8.43-4.3,11.59-14.08,7.1-21.84a15.2,15.2,0,0,0-5.26-5.42,23.69,23.69,0,0,0-4-1.82c-.72-.19-.43.19.63.81a12.83,12.83,0,0,1,4.82,5.5A11.46,11.46,0,0,1,32.26,57,12.63,12.63,0,0,1,28,62.81c-1.73,1.33-5,2.7-5.38,2.27-.09-.09-.27-3-.43-7.54-.16-4.07-.35-9.3-.44-11.65s-.17-5.34-.19-6.66l0-2.41.51-.15a29.26,29.26,0,0,1,6.78.33,22.19,22.19,0,0,1,11.13,6.17,20,20,0,0,1,5.67,10.57,26.05,26.05,0,0,1-.08,8.07C44.41,66.87,42,71,37.34,75.68a66.58,66.58,0,0,1-8.37,7c-3.94,2.94-5.18,3.81-5.44,3.81C23.43,86.46,23.33,86,23.27,85.11ZM15.53,64.8a11.69,11.69,0,0,1-4.91-3A14.57,14.57,0,0,1,9.55,42.69a13.76,13.76,0,0,1,4.9-3.84c1.7-.83,3.52-1.4,3.72-1.16.06.07.24,3.27.37,7.1S18.88,54.14,19,57c.26,6.75.29,8.2.17,8.38S17.28,65.37,15.53,64.8Z"/>
</svg>