<svg fill="#fff" xmlns="http://www.w3.org/2000/svg" viewBox="0 0 75.39 75.39">
    <path d="M49.54,25.85a16.73,16.73,0,1,0,4.91,11.84A16.67,16.67,0,0,0,49.54,25.85Z"/>
    
    <path d="M39.79,8.45v8.3H35.6V8.45c.69-.06,1.39-.08,2.09-.08S39.1,8.39,39.79,8.45Z"/>
    <path d="M29,18.51,25.41,20.6l-4.15-7.19a27.72,27.72,0,0,1,3.62-2.1Z"/>
    <path d="M20.61,25.4,18.51,29l-7.19-4.15a29,29,0,0,1,2.1-3.63Z"/>
    <path d="M16.75,35.59v4.19H8.46c-.06-.69-.08-1.39-.08-2.09s0-1.41.08-2.1Z"/>
    <path d="M20.61,50l-7.2,4.16a30.25,30.25,0,0,1-2.09-3.63l7.19-4.15Z"/>
    <path d="M29,56.87l-4.16,7.2A27.72,27.72,0,0,1,21.26,62l4.15-7.19Z"/>
    <path d="M39.79,58.63v8.3c-.69.06-1.39.08-2.1.08s-1.4,0-2.09-.08v-8.3Z"/>
    <path d="M54.13,62a30.19,30.19,0,0,1-3.62,2.1l-4.16-7.2L50,54.78Z"/>
    <path d="M64.07,50.5A27.72,27.72,0,0,1,62,54.12L54.78,50l2.1-3.62Z"/>
    <path d="M67,37.69c0,.7,0,1.4-.08,2.09h-8.3V35.59h8.3C67,36.28,67,37,67,37.69Z"/>
    <path d="M64.07,24.88,56.88,29l-2.1-3.63L62,21.25A30.32,30.32,0,0,1,64.07,24.88Z"/>
    <path d="M54.13,13.41,50,20.6l-3.63-2.09,4.16-7.2A30.19,30.19,0,0,1,54.13,13.41Z"/>
</svg>
