<svg fill="#888" xmlns="http://www.w3.org/2000/svg" viewBox="0 0 75.39 75.39">
    <path d="M73.65,52.36,60.32,39,54.4,45l7.39,7.39a14.6,14.6,0,0,1-10.1-4.29h0L25,21.41A23,23,0,0,0,8.75,14.66H0V23H8.75a14.61,14.61,0,0,1,10.37,4.3L45.77,54h0a23,23,0,0,0,16,6.75L54.4,68.14l5.92,5.93L73.65,60.74A5.93,5.93,0,0,0,73.65,52.36Z"/>
    <path d="M73.65,23,60.32,36.35,54.4,30.43,61.79,23a14.56,14.56,0,0,0-10.1,4.29h0L25,54A23,23,0,0,1,8.75,60.73H0V52.36H8.75a14.61,14.61,0,0,0,10.37-4.3L45.77,21.41h0a23,23,0,0,1,16-6.75L54.4,7.24l5.92-5.92L73.65,14.65A5.92,5.92,0,0,1,73.65,23Z"/>
</svg>