<svg fill="#fff" xmlns="http://www.w3.org/2000/svg" viewBox="0 0 235.05 147.2">
    <path d="M60.56,80.15A9.59,9.59,0,0,0,65.65,79a8.41,8.41,0,0,0,3.14-4.35L70,71.52,59.7,49c-1.26-2.74-3-4.27-5.32-4.57V43.26h5a8.2,8.2,0,0,1,4.47,1.23,8.11,8.11,0,0,1,3,3.35l6.58,14.41,7-18.42h3L71.88,74.43c-1.07,3-2.3,5-3.72,6.09a8.42,8.42,0,0,1-5.31,1.63H60.56Z"/>
    <path d="M89,51.27A9.23,9.23,0,0,0,88.21,47c-.51-.93-1.57-1.4-3.17-1.4h-.58V43.83h5.67a7.94,7.94,0,0,1,3.06.49A3.66,3.66,0,0,1,94.93,46q2.92-2.69,8.35-2.69t8.15,2.55q2.71,2.53,2.72,8V70.71h-7.44v-17c0-2.63-.48-4.56-1.46-5.78a4.79,4.79,0,0,0-4-1.83,9,9,0,0,0-3.12.49A5.73,5.73,0,0,0,96,47.89l.17.81a7.79,7.79,0,0,1,.23,2.23V70.71H89Z"/>
    <path d="M121.5,69.2A6.9,6.9,0,0,1,119,63.57a8,8,0,0,1,1.35-4.75A8.37,8.37,0,0,1,125,56a35.39,35.39,0,0,1,9.38-1h.86c0-3.32-.46-5.67-1.37-7.07a4.55,4.55,0,0,0-4.06-2.08,5.89,5.89,0,0,0-3.66,1.08A6.67,6.67,0,0,0,124.1,51H121a18.36,18.36,0,0,1,.26-3.31,4.91,4.91,0,0,1,1.17-2.41q1.77-2,8.58-2,5.72,0,8.72,3t3,9V70.71h-4.86l-2-2.57h-.28a6.36,6.36,0,0,1-1.6,1.6,8.25,8.25,0,0,1-5.27,1.55C125.59,71.29,123.19,70.59,121.5,69.2Zm10.95-1.26a7.13,7.13,0,0,0,1.66-1.34,5.82,5.82,0,0,0,1.14-1.89V57.56h-.86c-2.7,0-4.67.49-5.89,1.46a5.47,5.47,0,0,0-1.83,4.55,5.84,5.84,0,0,0,1,3.6,3.28,3.28,0,0,0,2.75,1.26A4.05,4.05,0,0,0,132.45,67.94Z"/>
    <path d="M150.24,51.27a9.21,9.21,0,0,0-.78-4.32c-.51-.93-1.57-1.4-3.17-1.4h-.57V43.83h5.66q3.72,0,4.86,2.18h.23a10.66,10.66,0,0,1,7.21-2.75,10.8,10.8,0,0,1,4.89,1.06,9.16,9.16,0,0,1,3,2.2,10.33,10.33,0,0,1,3.26-2.37,11.5,11.5,0,0,1,4.86-.89q10,0,10,10.53V70.71h-7.44v-17q0-3.94-1.26-5.78a3.84,3.84,0,0,0-3.31-1.83,6.79,6.79,0,0,0-2.86.6,5.23,5.23,0,0,0-2.06,1.58,12.66,12.66,0,0,1,.46,1.25,17,17,0,0,1,.45,4.24V70.71h-7.43v-17q0-3.94-1.26-5.78a3.85,3.85,0,0,0-3.32-1.83,5,5,0,0,0-2.48.72,5.79,5.79,0,0,0-1.92,1.57l.17.8a7.83,7.83,0,0,1,.23,2.23V70.71h-7.43Z"/>
    <path d="M197.42,51.27a9.05,9.05,0,0,0-.8-4.32c-.54-.93-1.6-1.4-3.2-1.4h-.58V43.83h6.87a5.87,5.87,0,0,1,3.14.69,3.79,3.79,0,0,1,1.55,2.26,17.2,17.2,0,0,1,.45,4.49V70.71h-7.43ZM198,39.49a4.51,4.51,0,0,1-1.11-3.09A3,3,0,0,1,200,33.2a4.07,4.07,0,0,1,3.18,1.25,4.51,4.51,0,0,1,1.11,3.09,3.11,3.11,0,0,1-.88,2.35,3.15,3.15,0,0,1-2.26.86A4,4,0,0,1,198,39.49Z"/>
    <path d="M216.46,69.4a12.21,12.21,0,0,1-4.66-5.06,16.68,16.68,0,0,1,0-14.13,12.21,12.21,0,0,1,4.66-5.06,14.11,14.11,0,0,1,7.5-1.89c4.57,0,7.53.67,8.86,2a4.39,4.39,0,0,1,1.2,2.58,44.46,44.46,0,0,1,.23,5.43h-1.71a8.05,8.05,0,0,0-2.24-5.52,7.58,7.58,0,0,0-5.49-1.91,5.7,5.7,0,0,0-5,2.88Q218,51.61,218,57.27q0,11.45,7.15,11.44a8.15,8.15,0,0,0,4.6-1.23A14.93,14.93,0,0,0,233.28,64l1.77,1.31a15,15,0,0,1-4.17,4.29A12.19,12.19,0,0,1,224,71.29,14.11,14.11,0,0,1,216.46,69.4Z"/>
    <path d="M10.85,146.74a17.18,17.18,0,0,0,4.55-4.38c4.87-6.11,7.24-12.42,8.31-22.15a135.11,135.11,0,0,0,.2-15.53c-.17-4.85-.17-5,.09-5.32s3.05-2.39,6.44-5,7.12-5.38,8.28-6.32a62.86,62.86,0,0,0,10-9.55A29.38,29.38,0,0,0,54,66.24a41.64,41.64,0,0,0,.06-10.52,30.25,30.25,0,0,0-5.59-12.18,27.55,27.55,0,0,0-17-10.06,42.19,42.19,0,0,0-8.82-.3,3.59,3.59,0,0,1-1.3,0c-.19-.18-.71-13.71-.62-16.14a17.23,17.23,0,0,1,2.1-8.22A14,14,0,0,1,27,4.77a12.4,12.4,0,0,1,11-.64A10.63,10.63,0,0,1,39.79,5.3a6.62,6.62,0,0,1,1.58,2.19c0,.1-.44.13-1.36.07A7.58,7.58,0,0,0,33.77,10a7.69,7.69,0,0,0-2.33,6.2,7.85,7.85,0,0,0,8.17,7.36A8.2,8.2,0,0,0,46,20.84c3.12-3.36,3.41-8.95.7-13.29a15.23,15.23,0,0,0-8.11-6.41,13.76,13.76,0,0,0-5.1-.81A15.47,15.47,0,0,0,22.2,4.77C20,7.08,18.66,9.87,17.93,14c-.31,1.71-.3,8.16,0,15.26.15,3.2.15,4.52,0,4.64a13.43,13.43,0,0,1-1.9.74A23,23,0,0,0,2.8,44.86a20,20,0,0,0,3,24.29,19.05,19.05,0,0,0,7.69,4.68,25.66,25.66,0,0,0,5.45,1c.39,0,.66.07.71.19.12.31.61,13.51.51,13.69a8.81,8.81,0,0,1-1.26,1.08,65.31,65.31,0,0,0-8.73,8.43c-5.84,7.2-8.7,16.36-8.7,27.74,0,7.9,1.44,13.84,4.44,18.48C7.61,147.18,8.86,147.73,10.85,146.74ZM7.39,134.81a3.13,3.13,0,0,1-1.28-1.54c-.91-1.79-1.18-3.47-1.18-7A18.29,18.29,0,0,1,6,119.08c2-5.71,6.8-11.68,13.48-16.67,1.13-.84,1.17-.84,1.19,0,0,.39.06,1.93.12,3.43.49,11.55-1.88,21.92-6.15,26.75a9.92,9.92,0,0,1-3.44,2.4A4.62,4.62,0,0,1,7.39,134.81Zm15.88-49.7c-.24-2.92-.49-10.32-.36-10.48a1.41,1.41,0,0,1,.68-.28,22.14,22.14,0,0,0,4.78-1.73c8.43-4.3,11.59-14.08,7.1-21.84a15.2,15.2,0,0,0-5.26-5.42,23.69,23.69,0,0,0-4-1.82c-.72-.19-.43.19.63.81a12.83,12.83,0,0,1,4.82,5.5A11.46,11.46,0,0,1,32.26,57,12.63,12.63,0,0,1,28,62.81c-1.73,1.33-5,2.7-5.38,2.27-.09-.09-.27-3-.43-7.54-.16-4.07-.35-9.3-.44-11.65s-.17-5.34-.19-6.66l0-2.41.51-.15a29.26,29.26,0,0,1,6.78.33,22.19,22.19,0,0,1,11.13,6.17,20,20,0,0,1,5.67,10.57,26.05,26.05,0,0,1-.08,8.07C44.41,66.87,42,71,37.34,75.68a66.58,66.58,0,0,1-8.37,7c-3.94,2.94-5.18,3.81-5.44,3.81C23.43,86.46,23.33,86,23.27,85.11ZM15.53,64.8a11.69,11.69,0,0,1-4.91-3A14.57,14.57,0,0,1,9.55,42.69a13.76,13.76,0,0,1,4.9-3.84c1.7-.83,3.52-1.4,3.72-1.16.06.07.24,3.27.37,7.1S18.88,54.14,19,57c.26,6.75.29,8.2.17,8.38S17.28,65.37,15.53,64.8Z"/>
    <path d="M55,95.77V91.11a3.34,3.34,0,0,1,.41-1.63,3.09,3.09,0,0,1,1.19-1.19,3.71,3.71,0,0,1,1.86-.44,3.88,3.88,0,0,1,1.06.15,2.93,2.93,0,0,1,1,.48,2.47,2.47,0,0,1,.72.92h0a2.66,2.66,0,0,1,.76-.92A2.89,2.89,0,0,1,63,88a4,4,0,0,1,1.08-.15,3.72,3.72,0,0,1,1.85.44,3,3,0,0,1,1.18,1.19,3.24,3.24,0,0,1,.41,1.63v4.66H66.12V91.11a2,2,0,0,0-.28-1,1.92,1.92,0,0,0-.73-.74,2,2,0,0,0-1-.28,2.1,2.1,0,0,0-1.83,1,1.9,1.9,0,0,0-.28,1v4.66h-1.4V91.11a1.9,1.9,0,0,0-.28-1,2.18,2.18,0,0,0-.76-.75,2.1,2.1,0,0,0-1.06-.28,1.91,1.91,0,0,0-1,.28,2,2,0,0,0-.74.74,2,2,0,0,0-.27,1v4.66Z"/>
    <path d="M73.27,92.34a1.19,1.19,0,0,1-.61-.17,1.44,1.44,0,0,1-.46-.46,1.27,1.27,0,0,1-.17-.63,1.24,1.24,0,0,1,.17-.63,1.52,1.52,0,0,1,.46-.45,1.1,1.1,0,0,1,.61-.17,1.16,1.16,0,0,1,.64.17,1.52,1.52,0,0,1,.46.45,1.23,1.23,0,0,1,.16.63,1.26,1.26,0,0,1-.16.63,1.44,1.44,0,0,1-.46.46A1.25,1.25,0,0,1,73.27,92.34Z"/>
    <path d="M82.66,96a3.94,3.94,0,0,1-1.87-.43,3.2,3.2,0,0,1-1.29-1.21,3.4,3.4,0,0,1-.46-1.8V88h1.41v4.45a2.34,2.34,0,0,0,.3,1.21,2,2,0,0,0,.81.78,2.34,2.34,0,0,0,2.18,0,2.12,2.12,0,0,0,.82-.78,2.25,2.25,0,0,0,.31-1.21V88h1.41v4.47a3.31,3.31,0,0,1-.47,1.8,3.2,3.2,0,0,1-1.29,1.21A3.87,3.87,0,0,1,82.66,96Z"/>
    <path d="M92,92.34a1.19,1.19,0,0,1-.61-.17,1.32,1.32,0,0,1-.45-.46,1.18,1.18,0,0,1-.18-.63,1.16,1.16,0,0,1,.18-.63,1.38,1.38,0,0,1,.45-.45,1.1,1.1,0,0,1,.61-.17,1.16,1.16,0,0,1,.64.17,1.52,1.52,0,0,1,.46.45,1.23,1.23,0,0,1,.16.63,1.26,1.26,0,0,1-.16.63,1.44,1.44,0,0,1-.46.46A1.25,1.25,0,0,1,92,92.34Z"/>
    <path d="M97.7,95.77v-1.2h3.7a1.18,1.18,0,0,0,.63-.16,1,1,0,0,0,.4-.42,1.14,1.14,0,0,0,.14-.54,1.13,1.13,0,0,0-.12-.51,1,1,0,0,0-.38-.38,1.21,1.21,0,0,0-.6-.14H99.91a3.22,3.22,0,0,1-1.29-.25,2,2,0,0,1-.87-.74,2.2,2.2,0,0,1-.31-1.18,2.17,2.17,0,0,1,.29-1.09,2.14,2.14,0,0,1,.8-.81A2.25,2.25,0,0,1,99.72,88h3.56v1.19H99.85a1,1,0,0,0-.74.29,1,1,0,0,0-.27.68.87.87,0,0,0,.28.66,1,1,0,0,0,.79.28h1.49a3.27,3.27,0,0,1,1.4.27,1.93,1.93,0,0,1,.87.77A2.42,2.42,0,0,1,104,93.4a2.31,2.31,0,0,1-.3,1.16,2.44,2.44,0,0,1-.84.88,2.36,2.36,0,0,1-1.25.33Z"/>
    <path d="M109.34,92.34a1.19,1.19,0,0,1-.61-.17,1.32,1.32,0,0,1-.45-.46,1.18,1.18,0,0,1-.18-.63,1.16,1.16,0,0,1,.18-.63,1.38,1.38,0,0,1,.45-.45,1.1,1.1,0,0,1,.61-.17A1.16,1.16,0,0,1,110,90a1.52,1.52,0,0,1,.46.45,1.23,1.23,0,0,1,.16.63,1.26,1.26,0,0,1-.16.63,1.44,1.44,0,0,1-.46.46A1.25,1.25,0,0,1,109.34,92.34Z"/>
    <path d="M115.82,86.81a.94.94,0,0,1-.66-.28.93.93,0,1,1,1.32-1.32.94.94,0,0,1-.66,1.6Zm-.71,9V88h1.41v7.73Z"/>
    <path d="M122.26,92.34a1.17,1.17,0,0,1-.61-.17,1.44,1.44,0,0,1-.46-.46,1.27,1.27,0,0,1-.17-.63,1.24,1.24,0,0,1,.17-.63,1.52,1.52,0,0,1,.46-.45,1.08,1.08,0,0,1,.61-.17,1.18,1.18,0,0,1,.64.17,1.38,1.38,0,0,1,.45.45,1.24,1.24,0,0,1,.17.63,1.27,1.27,0,0,1-.17.63,1.32,1.32,0,0,1-.45.46A1.28,1.28,0,0,1,122.26,92.34Z"/>
    <path d="M131.77,95.77a4.32,4.32,0,0,1-2.14-.52,4,4,0,0,1-1.49-1.38,3.69,3.69,0,0,1-.54-2,3.63,3.63,0,0,1,.54-2,4.07,4.07,0,0,1,1.49-1.39,4.42,4.42,0,0,1,2.14-.51h.91v1.19h-1a2.68,2.68,0,0,0-1.38.36A2.64,2.64,0,0,0,129,91.9a2.67,2.67,0,0,0,1.33,2.32,2.77,2.77,0,0,0,1.38.35h1v1.2Z"/>
    <path d="M137.82,92.34a1.23,1.23,0,0,1-.62-.17,1.52,1.52,0,0,1-.45-.46,1.18,1.18,0,0,1-.18-.63,1.16,1.16,0,0,1,.18-.63,1.61,1.61,0,0,1,.45-.45,1.23,1.23,0,0,1,1.25,0,1.32,1.32,0,0,1,.46.45,1.24,1.24,0,0,1,.17.63,1.26,1.26,0,0,1-.63,1.09A1.24,1.24,0,0,1,137.82,92.34Z"/>
    <path d="M147.49,87.85a4.61,4.61,0,0,1,1.61.28,3.69,3.69,0,0,1,1.26.83,3.83,3.83,0,0,1,.82,1.31,4.7,4.7,0,0,1,.3,1.72,4.4,4.4,0,0,1-.49,2.1,3.58,3.58,0,0,1-1.35,1.38,3.8,3.8,0,0,1-1.92.48,3.28,3.28,0,0,1-1.13-.2,3,3,0,0,1-1-.55,3.22,3.22,0,0,1-.67-.81h0V99.1h-1.4V92a4.39,4.39,0,0,1,.53-2.22,3.62,3.62,0,0,1,1.41-1.39A4.22,4.22,0,0,1,147.49,87.85Zm0,1.2a2.49,2.49,0,0,0-1.28.35,2.38,2.38,0,0,0-.92,1,3.08,3.08,0,0,0-.35,1.5,3.19,3.19,0,0,0,.35,1.52,2.38,2.38,0,0,0,.92,1,2.56,2.56,0,0,0,2.6,0,2.69,2.69,0,0,0,.92-1,3.43,3.43,0,0,0,0-3,2.47,2.47,0,0,0-.93-1A2.51,2.51,0,0,0,147.49,89.05Z"/>
    <path d="M156.82,92.34a1.2,1.2,0,0,1-.62-.17,1.32,1.32,0,0,1-.45-.46,1.18,1.18,0,0,1-.18-.63,1.16,1.16,0,0,1,.18-.63,1.38,1.38,0,0,1,.45-.45,1.11,1.11,0,0,1,.62-.17,1.15,1.15,0,0,1,.63.17,1.41,1.41,0,0,1,.46.45,1.23,1.23,0,0,1,.16.63,1.26,1.26,0,0,1-.16.63,1.35,1.35,0,0,1-.46.46A1.24,1.24,0,0,1,156.82,92.34Z"/>
    <path d="M162.58,95.77V84.7H164V95.77Z"/>
    <path d="M169.73,92.34a1.19,1.19,0,0,1-.61-.17,1.32,1.32,0,0,1-.45-.46,1.18,1.18,0,0,1-.18-.63,1.16,1.16,0,0,1,.18-.63,1.38,1.38,0,0,1,.45-.45,1.1,1.1,0,0,1,.61-.17,1.16,1.16,0,0,1,.64.17,1.52,1.52,0,0,1,.46.45,1.23,1.23,0,0,1,.16.63,1.26,1.26,0,0,1-.16.63,1.44,1.44,0,0,1-.46.46A1.25,1.25,0,0,1,169.73,92.34Z"/>
    <path d="M178.71,96a3.4,3.4,0,0,1-3.2-2,4.77,4.77,0,0,1-.44-2,4.23,4.23,0,0,1,.49-2.05A3.61,3.61,0,0,1,177,88.39a4.22,4.22,0,0,1,2.18-.54,4,4,0,0,1,2.11.53,3.65,3.65,0,0,1,1.36,1.45,4.25,4.25,0,0,1,.48,2v3.91h-1.41V94.19h0A3.71,3.71,0,0,1,181,95a3,3,0,0,1-1,.66A3.19,3.19,0,0,1,178.71,96Zm.36-1.2a2.44,2.44,0,0,0,1.35-.37,2.61,2.61,0,0,0,.91-1,3.38,3.38,0,0,0,.32-1.48,3.24,3.24,0,0,0-.31-1.44,2.4,2.4,0,0,0-2.24-1.38,2.55,2.55,0,0,0-1.4.38,2.38,2.38,0,0,0-.89,1,3.31,3.31,0,0,0-.31,1.47,3.36,3.36,0,0,0,.3,1.43,2.36,2.36,0,0,0,.88,1A2.41,2.41,0,0,0,179.07,94.75Z"/>
    <path d="M188.84,92.34a1.23,1.23,0,0,1-.62-.17,1.52,1.52,0,0,1-.45-.46,1.18,1.18,0,0,1-.18-.63,1.16,1.16,0,0,1,.18-.63,1.61,1.61,0,0,1,.45-.45,1.14,1.14,0,0,1,.62-.17,1.2,1.2,0,0,1,.64.17,1.38,1.38,0,0,1,.45.45,1.24,1.24,0,0,1,.17.63,1.27,1.27,0,0,1-.17.63,1.32,1.32,0,0,1-.45.46A1.3,1.3,0,0,1,188.84,92.34Z"/>
    <path d="M197.53,98.85v-3a3.5,3.5,0,0,1-1.51-.57,3.17,3.17,0,0,1-1-1.17,3.48,3.48,0,0,1-.38-1.64V88H196v4.45a2.34,2.34,0,0,0,.3,1.21,2,2,0,0,0,.81.78,2.29,2.29,0,0,0,1.09.27,2.33,2.33,0,0,0,1.1-.27,2.12,2.12,0,0,0,.82-.78,2.34,2.34,0,0,0,.31-1.21V88h1.39v4.47a3.48,3.48,0,0,1-.37,1.64,3.19,3.19,0,0,1-1,1.16,3.78,3.78,0,0,1-1.51.58v3Z"/>
    <path d="M207.59,92.34a1.19,1.19,0,0,1-.61-.17,1.44,1.44,0,0,1-.46-.46,1.27,1.27,0,0,1-.17-.63,1.24,1.24,0,0,1,.17-.63A1.52,1.52,0,0,1,207,90a1.1,1.1,0,0,1,.61-.17,1.16,1.16,0,0,1,.64.17,1.52,1.52,0,0,1,.46.45,1.23,1.23,0,0,1,.16.63,1.26,1.26,0,0,1-.16.63,1.44,1.44,0,0,1-.46.46A1.25,1.25,0,0,1,207.59,92.34Z"/>
    <path d="M217.28,95.77a5.11,5.11,0,0,1-2.26-.48,3.75,3.75,0,0,1-1.54-1.35,3.71,3.71,0,0,1-.55-2,4.51,4.51,0,0,1,.47-2.07,3.72,3.72,0,0,1,1.3-1.45,3.59,3.59,0,0,1,1.94-.53,3.65,3.65,0,0,1,2,.52,3.16,3.16,0,0,1,1.19,1.39,4.72,4.72,0,0,1,.39,1.95v.34a2.31,2.31,0,0,1,0,.32h-5.76a2.21,2.21,0,0,0,.47,1.21,2.41,2.41,0,0,0,1,.74,3.54,3.54,0,0,0,1.36.25h2v1.2Zm-2.88-4.38h4.41a3.42,3.42,0,0,0-.06-.62,2.46,2.46,0,0,0-.21-.63,2,2,0,0,0-.4-.57,2.07,2.07,0,0,0-.62-.4,2.35,2.35,0,0,0-.88-.15,2,2,0,0,0-.93.21,2,2,0,0,0-.69.54,2.45,2.45,0,0,0-.44.77A3.15,3.15,0,0,0,214.4,91.39Z"/>
    <path d="M225.54,92.34a1.19,1.19,0,0,1-.61-.17,1.32,1.32,0,0,1-.45-.46,1.18,1.18,0,0,1-.18-.63,1.16,1.16,0,0,1,.18-.63,1.38,1.38,0,0,1,.45-.45,1.1,1.1,0,0,1,.61-.17,1.16,1.16,0,0,1,.64.17,1.41,1.41,0,0,1,.46.45,1.23,1.23,0,0,1,.16.63,1.26,1.26,0,0,1-.16.63,1.35,1.35,0,0,1-.46.46A1.25,1.25,0,0,1,225.54,92.34Z"/>
    <path d="M231.26,95.77V90.23a2.22,2.22,0,0,1,.58-1.61,2.19,2.19,0,0,1,1.62-.58h1.59v1.19h-1.33a1,1,0,0,0-.78.29,1.09,1.09,0,0,0-.28.81v5.44Z"/>
</svg>