<svg fill="#888" xmlns="http://www.w3.org/2000/svg" viewBox="0 0 75.39 75.39">
    <path d="M66.84,17.71l-4.1-4.1L58.55,9.42V47.7A14,14,0,0,0,50.18,45c-6.94,0-12.57,4.69-12.57,10.47S43.24,66,50.18,66s12.56-4.68,12.56-10.47h0v-30l2.6,2.59a9.24,9.24,0,0,1,1.5,11.08A15.14,15.14,0,0,0,66.84,17.71Z"/>
    <rect x="23.03" y="-6.28" width="8.38" height="46.07" transform="translate(43.98 -10.47) rotate(90)"/>
    <rect x="23.03" y="12.56" width="8.38" height="46.07" transform="translate(62.82 8.38) rotate(90)"/>
    <rect x="12.56" y="41.88" width="8.38" height="25.13" transform="translate(71.2 37.69) rotate(90)"/>
</svg>